<?xml version="1.0" encoding="UTF-8"?>
<svg xmlns="http://www.w3.org/2000/svg" xmlns:xlink="http://www.w3.org/1999/xlink" width="1090px" height="472px" viewBox="0 0 1090 472" version="1.1">
<g id="surface1">
<path style=" stroke:none;fill-rule:nonzero;fill:rgb(19.607843%,19.607843%,19.607843%);fill-opacity:1;" d="M 622.734375 184.03125 C 625.9375 179.039062 630.351562 175.007812 635.984375 171.9375 C 641.617188 168.863281 648.207031 167.328125 655.761719 167.328125 C 664.59375 167.328125 672.59375 169.566406 679.761719 174.046875 C 686.929688 178.527344 692.558594 184.929688 696.65625 193.246094 C 700.878906 201.566406 702.992188 211.230469 702.992188 222.238281 C 702.992188 233.246094 700.878906 242.976562 696.65625 251.425781 C 692.558594 259.742188 686.929688 266.207031 679.761719 270.816406 C 672.59375 275.296875 664.59375 277.535156 655.761719 277.535156 C 648.335938 277.535156 641.742188 276 635.984375 272.929688 C 630.351562 269.855469 625.9375 265.886719 622.734375 261.023438 L 622.734375 327.070312 L 589.902344 327.070312 L 589.902344 168.863281 L 622.734375 168.863281 Z M 669.585938 222.238281 C 669.585938 214.046875 667.28125 207.648438 662.671875 203.039062 C 658.191406 198.304688 652.625 195.9375 645.96875 195.9375 C 639.441406 195.9375 633.871094 198.304688 629.265625 203.039062 C 624.785156 207.777344 622.542969 214.238281 622.542969 222.433594 C 622.542969 230.625 624.785156 237.089844 629.265625 241.824219 C 633.871094 246.558594 639.441406 248.929688 645.96875 248.929688 C 652.496094 248.929688 658.0625 246.558594 662.671875 241.824219 C 667.28125 236.960938 669.585938 230.433594 669.585938 222.238281 Z M 836.953125 141.214844 L 836.953125 276 L 804.121094 276 L 804.121094 220.511719 L 753.046875 220.511719 L 753.046875 276 L 720.214844 276 L 720.214844 141.214844 L 753.046875 141.214844 L 753.046875 194.015625 L 804.121094 194.015625 L 804.121094 141.214844 Z M 943.214844 194.976562 L 943.214844 222.238281 L 858.734375 222.238281 L 858.734375 194.976562 Z M 965.308594 166.367188 L 965.308594 135.839844 L 1018.492188 135.839844 L 1018.492188 276 L 984.316406 276 L 984.316406 166.367188 Z M 965.308594 166.367188 "/>
<path style=" stroke:none;fill-rule:nonzero;fill:rgb(27.843137%,13.72549%,61.960784%);fill-opacity:1;" d="M 0 119.871094 C 0 53.667969 53.667969 0 119.871094 0 L 352.125 0 C 418.332031 0 472 53.667969 472 119.871094 L 472 352.125 C 472 418.332031 418.332031 472 352.125 472 L 119.871094 472 C 53.667969 472 0 418.332031 0 352.125 Z M 0 119.871094 "/>
<path style=" stroke:none;fill-rule:nonzero;fill:rgb(100%,100%,100%);fill-opacity:1;" d="M 122.886719 327.097656 L 122.886719 192.238281 L 149.703125 192.238281 L 149.703125 208.714844 L 150.917969 208.714844 C 152.109375 206.074219 153.832031 203.390625 156.089844 200.667969 C 158.386719 197.902344 161.367188 195.601562 165.027344 193.773438 C 168.730469 191.898438 173.328125 190.960938 178.820312 190.960938 C 185.972656 190.960938 192.570312 192.835938 198.613281 196.582031 C 204.65625 200.285156 209.488281 205.882812 213.109375 213.375 C 216.726562 220.824219 218.535156 230.167969 218.535156 241.40625 C 218.535156 252.347656 216.769531 261.585938 213.234375 269.117188 C 209.746094 276.609375 204.976562 282.292969 198.933594 286.167969 C 192.929688 289.996094 186.207031 291.914062 178.757812 291.914062 C 173.476562 291.914062 168.988281 291.042969 165.28125 289.296875 C 161.621094 287.550781 158.621094 285.359375 156.28125 282.71875 C 153.9375 280.039062 152.152344 277.335938 150.917969 274.609375 L 150.085938 274.609375 L 150.085938 327.097656 Z M 149.511719 241.277344 C 149.511719 247.109375 150.320312 252.199219 151.9375 256.539062 C 153.554688 260.882812 155.898438 264.265625 158.960938 266.691406 C 162.027344 269.074219 165.75 270.269531 170.136719 270.269531 C 174.5625 270.269531 178.308594 269.054688 181.375 266.628906 C 184.4375 264.160156 186.757812 260.753906 188.332031 256.410156 C 189.953125 252.027344 190.761719 246.980469 190.761719 241.277344 C 190.761719 235.617188 189.972656 230.636719 188.398438 226.335938 C 186.824219 222.039062 184.503906 218.675781 181.4375 216.246094 C 178.371094 213.820312 174.605469 212.609375 170.136719 212.609375 C 165.707031 212.609375 161.960938 213.78125 158.898438 216.121094 C 155.875 218.460938 153.554688 221.78125 151.9375 226.082031 C 150.320312 230.378906 149.511719 235.445312 149.511719 241.277344 Z M 149.511719 241.277344 "/>
<path style=" stroke:none;fill-rule:nonzero;fill:rgb(100%,100%,100%);fill-opacity:1;" d="M 237.183594 290.316406 L 237.183594 159.546875 L 264.828125 159.546875 L 264.828125 213.503906 L 320.957031 213.503906 L 320.957031 159.546875 L 348.539062 159.546875 L 348.539062 290.316406 L 320.957031 290.316406 L 320.957031 236.296875 L 264.828125 236.296875 L 264.828125 290.316406 Z M 237.183594 290.316406 "/>
</g>
</svg>
