<svg xmlns="http://www.w3.org/2000/svg" width="709" height="236" fill="none" viewBox="0 0 709 236">
  <path fill="#323232" d="m325.952 169.52-8.64-11.616c-2.56.512-5.056.768-7.488.768-6.336 0-12.16-1.472-17.472-4.416-5.248-2.944-9.44-7.04-12.576-12.288-3.072-5.312-4.608-11.264-4.608-17.856 0-6.592 1.536-12.512 4.608-17.76 3.136-5.248 7.328-9.344 12.576-12.288 5.312-2.944 11.136-4.416 17.472-4.416 6.336 0 12.128 1.472 17.376 4.416 5.312 2.944 9.472 7.04 12.48 12.288 3.072 5.248 4.608 11.168 4.608 17.76 0 5.76-1.184 11.04-3.552 15.84-2.304 4.736-5.536 8.672-9.696 11.808l14.784 17.76h-19.872Zm-33.984-45.408c0 5.952 1.6 10.72 4.8 14.304 3.264 3.52 7.616 5.28 13.056 5.28 5.376 0 9.664-1.792 12.864-5.376 3.264-3.584 4.896-8.32 4.896-14.208 0-5.952-1.632-10.688-4.896-14.208-3.2-3.584-7.488-5.376-12.864-5.376-5.44 0-9.792 1.76-13.056 5.28-3.2 3.52-4.8 8.288-4.8 14.304Zm86.024 34.56c-4.928 0-9.344-.8-13.248-2.4-3.904-1.6-7.04-3.968-9.408-7.104-2.304-3.136-3.52-6.912-3.648-11.328h17.472c.256 2.496 1.12 4.416 2.592 5.76 1.472 1.28 3.392 1.92 5.76 1.92 2.432 0 4.352-.544 5.76-1.632 1.408-1.152 2.112-2.72 2.112-4.704 0-1.664-.576-3.04-1.728-4.128-1.088-1.088-2.464-1.984-4.128-2.688-1.6-.704-3.904-1.504-6.912-2.4-4.352-1.344-7.904-2.688-10.656-4.032-2.752-1.344-5.12-3.328-7.104-5.952s-2.976-6.048-2.976-10.272c0-6.272 2.272-11.168 6.816-14.688 4.544-3.584 10.464-5.376 17.76-5.376 7.424 0 13.408 1.792 17.952 5.376 4.544 3.52 6.976 8.448 7.296 14.784h-17.76c-.128-2.176-.928-3.872-2.4-5.088-1.472-1.28-3.36-1.92-5.664-1.92-1.984 0-3.584.544-4.8 1.632-1.216 1.024-1.824 2.528-1.824 4.512 0 2.176 1.024 3.872 3.072 5.088 2.048 1.216 5.248 2.528 9.6 3.936 4.352 1.472 7.872 2.88 10.56 4.224 2.752 1.344 5.12 3.296 7.104 5.856s2.976 5.856 2.976 9.888c0 3.84-.992 7.328-2.976 10.464-1.92 3.136-4.736 5.632-8.448 7.488-3.712 1.856-8.096 2.784-13.152 2.784Zm64.535-14.592V158h-8.352c-5.952 0-10.592-1.44-13.92-4.32-3.328-2.944-4.992-7.712-4.992-14.304v-21.312h-6.528v-13.632h6.528V91.376h16.416v13.056h10.752v13.632h-10.752v21.504c0 1.6.384 2.752 1.152 3.456.768.704 2.048 1.056 3.84 1.056h5.856Zm17.4-45.216c-2.88 0-5.248-.832-7.104-2.496-1.792-1.728-2.688-3.84-2.688-6.336 0-2.56.896-4.672 2.688-6.336 1.856-1.728 4.224-2.592 7.104-2.592 2.816 0 5.12.864 6.912 2.592 1.856 1.664 2.784 3.776 2.784 6.336 0 2.496-.928 4.608-2.784 6.336-1.792 1.664-4.096 2.496-6.912 2.496Zm8.16 5.568V158h-16.416v-53.568h16.416Zm8.632 26.784c0-5.568 1.12-10.432 3.36-14.592 2.304-4.16 5.472-7.36 9.504-9.6 4.096-2.24 8.768-3.36 14.016-3.36 6.72 0 12.32 1.76 16.8 5.28 4.544 3.52 7.52 8.48 8.928 14.88h-17.472c-1.472-4.096-4.32-6.144-8.544-6.144-3.008 0-5.408 1.184-7.2 3.552-1.792 2.304-2.688 5.632-2.688 9.984s.896 7.712 2.688 10.08c1.792 2.304 4.192 3.456 7.2 3.456 4.224 0 7.072-2.048 8.544-6.144h17.472c-1.408 6.272-4.384 11.2-8.928 14.784-4.544 3.584-10.144 5.376-16.8 5.376-5.248 0-9.92-1.12-14.016-3.36-4.032-2.24-7.2-5.44-9.504-9.6-2.24-4.16-3.36-9.024-3.36-14.592ZM570.844 158l-16.32-22.464V158h-16.416V86.96h16.416v39.264l16.224-21.792h20.256l-22.272 26.88L591.196 158h-20.352Zm77.104-27.648c0 1.536-.096 3.136-.288 4.8h-37.152c.256 3.328 1.312 5.888 3.168 7.68 1.92 1.728 4.256 2.592 7.008 2.592 4.096 0 6.944-1.728 8.544-5.184H646.7c-.896 3.52-2.528 6.688-4.896 9.504-2.304 2.816-5.216 5.024-8.736 6.624-3.52 1.6-7.456 2.4-11.808 2.4-5.248 0-9.92-1.12-14.016-3.36-4.096-2.24-7.296-5.44-9.6-9.6-2.304-4.16-3.456-9.024-3.456-14.592 0-5.568 1.12-10.432 3.36-14.592 2.304-4.16 5.504-7.36 9.6-9.6 4.096-2.24 8.8-3.36 14.112-3.36 5.184 0 9.792 1.088 13.824 3.264 4.032 2.176 7.168 5.28 9.408 9.312 2.304 4.032 3.456 8.736 3.456 14.112Zm-16.8-4.32c0-2.816-.96-5.056-2.88-6.72-1.92-1.664-4.32-2.496-7.2-2.496-2.752 0-5.088.8-7.008 2.4-1.856 1.6-3.008 3.872-3.456 6.816h20.544Zm41.876-12.672c1.92-2.944 4.32-5.248 7.2-6.912 2.88-1.728 6.08-2.592 9.6-2.592v17.376h-4.512c-4.096 0-7.168.896-9.216 2.688-2.048 1.728-3.072 4.8-3.072 9.216V158h-16.416v-53.568h16.416v8.928Z"/>
  <path fill="#47239E" d="M0 59.937C0 26.835 26.834 0 59.937 0h116.126C209.166 0 236 26.834 236 59.937v116.126C236 209.166 209.166 236 176.063 236H59.937C26.834 236 0 209.166 0 176.063V59.937Z"/>
  <path fill="#fff" d="m149.952 177.424-18.348-18.348a51.627 51.627 0 0 1-13.728 1.848c-8.536 0-16.324-1.98-23.364-5.94-7.04-4.048-12.628-9.636-16.764-16.764-4.048-7.216-6.072-15.312-6.072-24.288s2.024-17.028 6.072-24.156c4.136-7.216 9.724-12.804 16.764-16.764 7.04-4.048 14.828-6.072 23.364-6.072 8.624 0 16.456 2.024 23.496 6.072 7.04 3.96 12.584 9.504 16.632 16.632 4.048 7.128 6.072 15.224 6.072 24.288 0 8.8-1.936 16.72-5.808 23.76-3.872 7.04-9.196 12.584-15.972 16.632l23.232 23.1h-15.576Zm-66-63.492c0 7.304 1.452 13.728 4.356 19.272 2.992 5.544 7.04 9.812 12.144 12.804 5.192 2.992 11 4.488 17.424 4.488 6.424 0 12.188-1.496 17.292-4.488 5.192-2.992 9.24-7.26 12.144-12.804 2.992-5.544 4.488-11.968 4.488-19.272 0-7.392-1.496-13.816-4.488-19.272-2.904-5.544-6.908-9.812-12.012-12.804-5.104-2.992-10.912-4.488-17.424-4.488-6.512 0-12.32 1.496-17.424 4.488-5.104 2.992-9.152 7.26-12.144 12.804-2.904 5.456-4.356 11.88-4.356 19.272Z"/>
</svg>
